<svg width="474" height="610" viewBox="0 0 474 610" fill="none" xmlns="http://www.w3.org/2000/svg">
<g filter="url(#filter0_f_49_239)">
<mask id="path-1-inside-1_49_239" fill="white">
<path d="M379.991 303.883C379.674 247.922 364.353 194.323 337.382 154.812C310.41 115.301 273.982 93.093 236.067 93.0461C198.151 92.9992 161.834 115.117 135.06 154.562C108.286 194.007 93.2336 247.568 93.1961 303.528C93.1586 359.489 108.139 413.294 134.86 453.175C161.581 493.055 197.868 515.765 235.783 516.336C273.698 516.907 310.155 495.292 337.18 456.221C364.204 417.15 379.596 363.802 379.989 307.846L236.596 304.696L379.991 303.883Z"/>
</mask>
<path d="M379.991 303.883C379.674 247.922 364.353 194.323 337.382 154.812C310.41 115.301 273.982 93.093 236.067 93.0461C198.151 92.9992 161.834 115.117 135.06 154.562C108.286 194.007 93.2336 247.568 93.1961 303.528C93.1586 359.489 108.139 413.294 134.86 453.175C161.581 493.055 197.868 515.765 235.783 516.336C273.698 516.907 310.155 495.292 337.18 456.221C364.204 417.15 379.596 363.802 379.989 307.846L236.596 304.696L379.991 303.883Z" fill="#242EEF" fill-opacity="0.4"/>
<path d="M379.991 303.883C379.674 247.922 364.353 194.323 337.382 154.812C310.41 115.301 273.982 93.093 236.067 93.0461C198.151 92.9992 161.834 115.117 135.06 154.562C108.286 194.007 93.2336 247.568 93.1961 303.528C93.1586 359.489 108.139 413.294 134.86 453.175C161.581 493.055 197.868 515.765 235.783 516.336C273.698 516.907 310.155 495.292 337.18 456.221C364.204 417.15 379.596 363.802 379.989 307.846L236.596 304.696L379.991 303.883Z" stroke="#9A9A9A" stroke-width="2.06709" mask="url(#path-1-inside-1_49_239)"/>
</g>
<g filter="url(#filter1_f_49_239)">
<path d="M213.744 193.919C206.745 196.998 200.097 198.538 193.798 198.538C181.9 198.538 175.041 195.809 173.222 190.35C182.74 186.43 192.258 180.201 201.776 171.663C218.993 155.986 229.211 144.018 232.431 135.76H271.483L269.384 144.998C267.564 153.816 266.444 164.244 266.024 176.282C265.604 188.32 265.185 199.098 264.765 208.616C264.345 218.134 264.065 228.003 263.925 238.221C263.365 262.296 263.085 283.992 263.085 303.309C263.085 376.935 265.395 421.867 270.014 438.104C271.693 444.122 274.073 450.421 277.152 457H202.406L206.186 447.552C212.624 430.615 215.844 382.114 215.844 302.049C215.844 256.277 215.144 220.234 213.744 193.919Z" fill="#30B1DA"/>
<path d="M213.744 193.919L222.731 193.441L222.04 180.436L210.119 185.681L213.744 193.919ZM173.222 190.35L169.795 182.028L162.027 185.226L164.684 193.196L173.222 190.35ZM201.776 171.663L207.786 178.363L207.811 178.34L207.836 178.318L201.776 171.663ZM232.431 135.76V126.76H226.279L224.045 132.491L232.431 135.76ZM271.483 135.76L280.26 137.754L282.758 126.76H271.483V135.76ZM269.384 144.998L260.608 143.003L260.588 143.091L260.569 143.179L269.384 144.998ZM263.925 238.221L272.922 238.43L272.923 238.387L272.924 238.344L263.925 238.221ZM270.014 438.104L278.682 435.684L278.676 435.663L278.67 435.641L270.014 438.104ZM277.152 457V466H291.302L285.304 453.185L277.152 457ZM202.406 457L194.05 453.657L189.113 466H202.406V457ZM206.186 447.552L214.542 450.894L214.571 450.822L214.598 450.75L206.186 447.552ZM210.119 185.681C204.024 188.363 198.612 189.538 193.798 189.538V207.538C201.582 207.538 209.467 205.634 217.369 202.157L210.119 185.681ZM193.798 189.538C188.376 189.538 184.979 188.893 183.058 188.129C181.343 187.446 181.605 187.039 181.76 187.504L164.684 193.196C166.658 199.119 171.259 202.806 176.403 204.853C181.34 206.818 187.321 207.538 193.798 207.538V189.538ZM176.648 198.672C187.312 194.281 197.683 187.426 207.786 178.363L195.767 164.964C186.833 172.977 178.168 178.58 169.795 182.028L176.648 198.672ZM207.836 178.318C216.604 170.333 223.758 163.144 229.197 156.773C234.535 150.521 238.661 144.557 240.816 139.029L224.045 132.491C222.981 135.221 220.388 139.37 215.508 145.086C210.729 150.683 204.165 157.316 195.717 165.009L207.836 178.318ZM232.431 144.76H271.483V126.76H232.431V144.76ZM262.707 133.765L260.608 143.003L278.16 146.993L280.26 137.754L262.707 133.765ZM260.569 143.179C258.62 152.627 257.462 163.582 257.03 175.968L275.019 176.596C275.427 164.907 276.508 155.006 278.198 146.817L260.569 143.179ZM257.03 175.968C256.611 187.985 256.192 198.735 255.773 208.22L273.756 209.013C274.177 199.461 274.598 188.655 275.019 176.596L257.03 175.968ZM255.773 208.22C255.349 217.835 255.067 227.795 254.926 238.097L272.924 238.344C273.063 228.211 273.34 218.434 273.756 209.013L255.773 208.22ZM254.927 238.011C254.366 262.141 254.085 283.908 254.085 303.309H272.085C272.085 284.076 272.364 262.452 272.922 238.43L254.927 238.011ZM254.085 303.309C254.085 340.192 254.663 370.004 255.829 392.689C256.979 415.071 258.731 431.333 261.357 440.566L278.67 435.641C276.678 428.637 274.964 414.315 273.805 391.765C272.662 369.518 272.085 340.051 272.085 303.309H254.085ZM261.345 440.523C263.178 447.09 265.744 453.857 269.001 460.815L285.304 453.185C282.402 446.986 280.209 441.155 278.682 435.684L261.345 440.523ZM277.152 448H202.406V466H277.152V448ZM210.763 460.343L214.542 450.894L197.829 444.209L194.05 453.657L210.763 460.343ZM214.598 450.75C218.362 440.85 220.808 423.197 222.409 399.069C224.038 374.535 224.844 342.171 224.844 302.049H206.844C206.844 341.992 206.04 373.91 204.449 397.877C202.831 422.251 200.448 437.317 197.773 444.354L214.598 450.75ZM224.844 302.049C224.844 256.215 224.144 219.989 222.731 193.441L204.757 194.397C206.144 220.479 206.844 256.339 206.844 302.049H224.844Z" fill="#30B1DA"/>
</g>
<g filter="url(#filter2_d_49_239)">
<path d="M215.297 202.273C208.786 205.138 202.602 206.57 196.742 206.57C185.674 206.57 179.294 204.031 177.602 198.953C186.456 195.307 195.31 189.513 204.164 181.57C220.18 166.987 229.685 155.854 232.68 148.172H269.008L267.055 156.766C265.362 164.969 264.32 174.669 263.93 185.867C263.539 197.065 263.148 207.091 262.758 215.945C262.367 224.799 262.107 233.979 261.977 243.484C261.456 265.88 261.195 286.062 261.195 304.031C261.195 372.521 263.344 414.318 267.641 429.422C269.203 435.021 271.417 440.88 274.281 447H204.75L208.266 438.211C214.255 422.456 217.25 377.339 217.25 302.859C217.25 260.281 216.599 226.753 215.297 202.273Z" fill="white"/>
<path d="M215.297 202.273L216.295 202.22L216.219 200.775L214.894 201.358L215.297 202.273ZM177.602 198.953L177.221 198.028L176.358 198.384L176.653 199.269L177.602 198.953ZM204.164 181.57L204.832 182.315L204.837 182.31L204.164 181.57ZM232.68 148.172V147.172H231.996L231.748 147.809L232.68 148.172ZM269.008 148.172L269.983 148.393L270.261 147.172H269.008V148.172ZM267.055 156.766L266.08 156.544L266.077 156.554L266.075 156.564L267.055 156.766ZM261.977 243.484L262.976 243.508L262.976 243.498L261.977 243.484ZM267.641 429.422L268.604 429.153L268.602 429.148L267.641 429.422ZM274.281 447V448H275.853L275.187 446.576L274.281 447ZM204.75 447L203.822 446.629L203.273 448H204.75V447ZM208.266 438.211L209.194 438.582L209.197 438.574L209.2 438.566L208.266 438.211ZM214.894 201.358C208.484 204.179 202.437 205.57 196.742 205.57V207.57C202.767 207.57 209.089 206.097 215.7 203.189L214.894 201.358ZM196.742 205.57C191.267 205.57 187.049 204.94 184.026 203.737C181.026 202.543 179.278 200.821 178.55 198.637L176.653 199.269C177.618 202.163 179.906 204.25 183.286 205.595C186.644 206.931 191.15 207.57 196.742 207.57V205.57ZM177.982 199.878C186.964 196.18 195.913 190.316 204.832 182.315L203.496 180.826C194.707 188.71 185.948 194.435 177.221 198.028L177.982 199.878ZM204.837 182.31C212.863 175.002 219.276 168.542 224.065 162.933C228.843 157.336 232.053 152.532 233.611 148.535L231.748 147.809C230.311 151.494 227.271 156.097 222.544 161.634C217.828 167.157 211.481 173.555 203.491 180.831L204.837 182.31ZM232.68 149.172H269.008V147.172H232.68V149.172ZM268.033 147.95L266.08 156.544L268.03 156.987L269.983 148.393L268.033 147.95ZM266.075 156.564C264.368 164.837 263.322 174.596 262.93 185.832L264.929 185.902C265.318 174.743 266.356 165.101 268.034 156.968L266.075 156.564ZM262.93 185.832C262.54 197.028 262.149 207.051 261.759 215.901L263.757 215.989C264.148 207.131 264.538 197.102 264.929 185.902L262.93 185.832ZM261.759 215.901C261.368 224.766 261.107 233.956 260.977 243.471L262.976 243.498C263.107 234.002 263.367 224.833 263.757 215.989L261.759 215.901ZM260.977 243.461C260.456 265.863 260.195 286.053 260.195 304.031H262.195C262.195 286.072 262.456 265.898 262.976 243.508L260.977 243.461ZM260.195 304.031C260.195 338.284 260.732 365.875 261.808 386.797C262.882 407.687 264.495 422.02 266.679 429.696L268.602 429.148C266.489 421.72 264.88 407.603 263.805 386.695C262.732 365.821 262.195 338.268 262.195 304.031H260.195ZM266.677 429.691C268.257 435.351 270.491 441.262 273.376 447.424L275.187 446.576C272.342 440.498 270.149 434.691 268.604 429.153L266.677 429.691ZM274.281 446H204.75V448H274.281V446ZM205.678 447.371L209.194 438.582L207.337 437.84L203.822 446.629L205.678 447.371ZM209.2 438.566C212.256 430.53 214.505 415.168 216.002 392.623C217.501 370.033 218.25 340.109 218.25 302.859H216.25C216.25 340.089 215.501 369.963 214.006 392.49C212.508 415.063 210.265 430.137 207.331 437.856L209.2 438.566ZM218.25 302.859C218.25 260.274 217.599 226.725 216.295 202.22L214.298 202.327C215.599 226.78 216.25 260.288 216.25 302.859H218.25Z" fill="#30B1DA"/>
</g>
<defs>
<filter id="filter0_f_49_239" x="0.177132" y="0.0269852" width="472.833" height="609.339" filterUnits="userSpaceOnUse" color-interpolation-filters="sRGB">
<feFlood flood-opacity="0" result="BackgroundImageFix"/>
<feBlend mode="normal" in="SourceGraphic" in2="BackgroundImageFix" result="shape"/>
<feGaussianBlur stdDeviation="46.5095" result="effect1_foregroundBlur_49_239"/>
</filter>
<filter id="filter1_f_49_239" x="143.222" y="105.76" width="163.931" height="381.24" filterUnits="userSpaceOnUse" color-interpolation-filters="sRGB">
<feFlood flood-opacity="0" result="BackgroundImageFix"/>
<feBlend mode="normal" in="SourceGraphic" in2="BackgroundImageFix" result="shape"/>
<feGaussianBlur stdDeviation="15" result="effect1_foregroundBlur_49_239"/>
</filter>
<filter id="filter2_d_49_239" x="173.602" y="148.172" width="104.68" height="306.828" filterUnits="userSpaceOnUse" color-interpolation-filters="sRGB">
<feFlood flood-opacity="0" result="BackgroundImageFix"/>
<feColorMatrix in="SourceAlpha" type="matrix" values="0 0 0 0 0 0 0 0 0 0 0 0 0 0 0 0 0 0 127 0" result="hardAlpha"/>
<feOffset dy="4"/>
<feGaussianBlur stdDeviation="2"/>
<feComposite in2="hardAlpha" operator="out"/>
<feColorMatrix type="matrix" values="0 0 0 0 0.141176 0 0 0 0 0.180392 0 0 0 0 0.937255 0 0 0 1 0"/>
<feBlend mode="normal" in2="BackgroundImageFix" result="effect1_dropShadow_49_239"/>
<feBlend mode="normal" in="SourceGraphic" in2="effect1_dropShadow_49_239" result="shape"/>
</filter>
</defs>
</svg>
