<svg width="474" height="611" viewBox="0 0 474 611" fill="none" xmlns="http://www.w3.org/2000/svg">
<g filter="url(#filter0_f_44_215)">
<mask id="path-1-inside-1_44_215" fill="white">
<path d="M379.991 304.649C379.674 248.688 364.353 195.089 337.382 155.578C310.41 116.067 273.982 93.8591 236.067 93.8122C198.151 93.7653 161.834 115.883 135.06 155.328C108.286 194.773 93.2336 248.334 93.1961 304.294C93.1586 360.255 108.139 414.06 134.86 453.941C161.581 493.821 197.868 516.531 235.783 517.102C273.698 517.673 310.155 496.058 337.18 456.987C364.204 417.916 379.596 364.568 379.989 308.613L236.596 305.462L379.991 304.649Z"/>
</mask>
<path d="M379.991 304.649C379.674 248.688 364.353 195.089 337.382 155.578C310.41 116.067 273.982 93.8591 236.067 93.8122C198.151 93.7653 161.834 115.883 135.06 155.328C108.286 194.773 93.2336 248.334 93.1961 304.294C93.1586 360.255 108.139 414.06 134.86 453.941C161.581 493.821 197.868 516.531 235.783 517.102C273.698 517.673 310.155 496.058 337.18 456.987C364.204 417.916 379.596 364.568 379.989 308.613L236.596 305.462L379.991 304.649Z" fill="#242EEF" fill-opacity="0.4"/>
<path d="M379.991 304.649C379.674 248.688 364.353 195.089 337.382 155.578C310.41 116.067 273.982 93.8591 236.067 93.8122C198.151 93.7653 161.834 115.883 135.06 155.328C108.286 194.773 93.2336 248.334 93.1961 304.294C93.1586 360.255 108.139 414.06 134.86 453.941C161.581 493.821 197.868 516.531 235.783 517.102C273.698 517.673 310.155 496.058 337.18 456.987C364.204 417.916 379.596 364.568 379.989 308.613L236.596 305.462L379.991 304.649Z" stroke="#9A9A9A" stroke-width="2.06709" mask="url(#path-1-inside-1_44_215)"/>
</g>
<g filter="url(#filter1_f_44_215)">
<path d="M249.178 144.561C294.109 144.561 316.575 163.597 316.575 201.67C316.575 233.444 298.379 278.516 261.985 336.885L224.612 395.674C213.134 414.29 207.396 426.538 207.396 432.417C207.396 438.016 209.005 441.795 212.225 443.755C217.964 447.254 226.502 449.004 237.84 449.004C249.178 449.004 259.116 447.744 267.654 445.225C276.193 442.705 284.101 439.206 291.38 434.727C306.497 425.068 316.575 412.331 321.614 396.514C327.633 404.772 330.643 415.41 330.643 428.428C330.643 441.585 329.313 450.684 326.653 455.723C321.474 465.241 313.006 470 301.248 470H144.197C145.597 462.301 151.056 449.634 160.574 431.997C198.367 363.41 221.113 321.348 228.812 305.811C236.65 290.273 243.369 275.926 248.968 262.769C261.146 233.654 267.234 210.908 267.234 194.531C267.234 186.133 265.345 179.904 261.565 175.845C257.926 171.785 252.117 169.756 244.139 169.756C236.16 169.756 229.091 171.226 222.933 174.165C216.914 177.104 211.245 181.094 205.926 186.133C200.747 191.172 195.988 196.981 191.648 203.56C187.449 210.138 183.74 217.067 180.521 224.346C174.222 239.183 170.302 253.88 168.763 268.438C157.845 262.979 152.386 244.852 152.386 214.058C152.386 180.604 156.445 156.458 164.563 141.621C166.663 137.842 169.113 135.322 171.912 134.062C176.391 140.221 179.751 144.001 181.99 145.4C185.77 147.64 190.179 148.76 195.218 148.76C200.397 148.76 204.736 148.55 208.235 148.13C211.875 147.71 215.724 147.22 219.783 146.66C230.001 145.26 239.799 144.561 249.178 144.561Z" fill="#30B1DA"/>
<path d="M261.985 336.885L269.581 341.713L269.602 341.68L269.622 341.647L261.985 336.885ZM224.612 395.674L217.017 390.845L216.984 390.898L216.951 390.951L224.612 395.674ZM212.225 443.755L216.91 436.071L216.904 436.067L212.225 443.755ZM291.38 434.727L296.097 442.391L296.161 442.352L296.225 442.311L291.38 434.727ZM321.614 396.514L328.888 391.213L318.429 376.863L313.039 393.782L321.614 396.514ZM326.653 455.723L334.559 460.024L334.586 459.974L334.613 459.923L326.653 455.723ZM144.197 470L135.342 468.39L133.413 479H144.197V470ZM160.574 431.997L152.692 427.654L152.673 427.688L152.654 427.723L160.574 431.997ZM228.812 305.811L220.776 301.757L220.762 301.786L220.747 301.815L228.812 305.811ZM248.968 262.769L257.249 266.293L257.26 266.267L257.271 266.241L248.968 262.769ZM261.565 175.845L254.864 181.853L254.921 181.916L254.978 181.977L261.565 175.845ZM222.933 174.165L219.056 166.043L219.019 166.06L218.983 166.078L222.933 174.165ZM205.926 186.133L199.736 179.599L199.693 179.64L199.65 179.682L205.926 186.133ZM191.648 203.56L184.135 198.604L184.098 198.66L184.062 198.717L191.648 203.56ZM180.521 224.346L172.29 220.705L172.262 220.767L172.236 220.829L180.521 224.346ZM168.763 268.438L164.738 276.487L176.347 282.292L177.713 269.384L168.763 268.438ZM164.563 141.621L156.696 137.25L156.682 137.276L156.668 137.301L164.563 141.621ZM171.912 134.062L179.191 128.769L174.889 122.854L168.219 125.855L171.912 134.062ZM181.99 145.4L177.22 153.032L177.31 153.089L177.402 153.143L181.99 145.4ZM208.235 148.13L207.204 139.189L207.183 139.192L207.163 139.194L208.235 148.13ZM219.783 146.66L218.562 137.743L218.553 137.745L219.783 146.66ZM249.178 153.561C270.587 153.561 284.965 158.127 293.908 165.704C302.564 173.039 307.575 184.447 307.575 201.67H325.575C325.575 180.82 319.353 163.673 305.544 151.971C292.02 140.512 272.7 135.561 249.178 135.561V153.561ZM307.575 201.67C307.575 230.693 290.67 273.869 254.348 332.123L269.622 341.647C306.088 283.162 325.575 236.195 325.575 201.67H307.575ZM254.39 332.056L217.017 390.845L232.207 400.502L269.581 341.713L254.39 332.056ZM216.951 390.951C211.128 400.397 206.626 408.439 203.55 415.003C200.666 421.158 198.396 427.294 198.396 432.417H216.396C216.396 431.661 216.994 428.734 219.849 422.641C222.513 416.957 226.619 409.568 232.273 400.397L216.951 390.951ZM198.396 432.417C198.396 439.508 200.484 447.145 207.545 451.443L216.904 436.067C217.045 436.153 217.021 436.248 216.883 435.924C216.692 435.475 216.396 434.418 216.396 432.417H198.396ZM207.539 451.439C215.354 456.204 225.855 458.004 237.84 458.004V440.004C227.149 440.004 220.573 438.304 216.91 436.071L207.539 451.439ZM237.84 458.004C249.817 458.004 260.646 456.676 270.201 453.857L265.107 436.593C257.586 438.812 248.539 440.004 237.84 440.004V458.004ZM270.201 453.857C279.471 451.121 288.113 447.305 296.097 442.391L286.663 427.062C280.089 431.107 272.915 434.289 265.107 436.593L270.201 453.857ZM296.225 442.311C312.961 431.619 324.459 417.233 330.19 399.246L313.039 393.782C308.691 407.428 300.033 418.518 286.534 427.142L296.225 442.311ZM314.341 401.815C318.964 408.158 321.643 416.791 321.643 428.428H339.643C339.643 414.029 336.302 401.387 328.888 391.213L314.341 401.815ZM321.643 428.428C321.643 441.565 320.218 448.633 318.694 451.522L334.613 459.923C338.407 452.734 339.643 441.606 339.643 428.428H321.643ZM318.748 451.421C316.871 454.871 314.601 457.128 312.008 458.585C309.377 460.064 305.906 461 301.248 461V479C308.348 479 314.99 477.557 320.827 474.277C326.703 470.974 331.257 466.093 334.559 460.024L318.748 451.421ZM301.248 461H144.197V479H301.248V461ZM153.052 471.61C154.164 465.492 158.937 453.98 168.494 436.271L152.654 427.723C143.175 445.287 137.03 459.111 135.342 468.39L153.052 471.61ZM168.457 436.341C206.207 367.831 229.069 325.562 236.876 309.806L220.747 301.815C213.157 317.133 190.528 358.988 152.692 427.654L168.457 436.341ZM236.847 309.864C244.755 294.189 251.56 279.663 257.249 266.293L240.686 259.245C235.178 272.189 228.545 286.358 220.776 301.757L236.847 309.864ZM257.271 266.241C269.562 236.856 276.234 212.754 276.234 194.531H258.234C258.234 209.062 252.729 230.451 240.665 259.296L257.271 266.241ZM276.234 194.531C276.234 184.997 274.115 176.117 268.152 169.712L254.978 181.977C256.574 183.691 258.234 187.269 258.234 194.531H276.234ZM268.267 169.837C262.255 163.131 253.471 160.756 244.139 160.756V178.756C250.763 178.756 253.598 180.44 254.864 181.853L268.267 169.837ZM244.139 160.756C235.044 160.756 226.614 162.436 219.056 166.043L226.809 182.287C231.569 180.016 237.276 178.756 244.139 178.756V160.756ZM218.983 166.078C212.07 169.454 205.657 173.99 199.736 179.599L212.115 192.666C216.833 188.197 221.758 184.755 226.882 182.252L218.983 166.078ZM199.65 179.682C193.966 185.212 188.8 191.532 184.135 198.604L199.161 208.515C203.175 202.429 207.528 197.131 212.202 192.583L199.65 179.682ZM184.062 198.717C179.613 205.687 175.69 213.018 172.29 220.705L188.751 227.986C191.79 221.116 195.285 214.589 199.235 208.402L184.062 198.717ZM172.236 220.829C165.624 236.403 161.455 251.964 159.813 267.491L177.713 269.384C179.15 255.796 182.819 241.963 188.805 227.863L172.236 220.829ZM172.788 260.388C170.513 259.25 167.5 256.129 165.098 248.153C162.73 240.291 161.386 229.052 161.386 214.058H143.386C143.386 229.857 144.771 243.079 147.862 253.344C150.919 263.494 156.095 272.166 164.738 276.487L172.788 260.388ZM161.386 214.058C161.386 180.907 165.481 158.694 172.459 145.941L156.668 137.301C147.409 154.223 143.386 180.3 143.386 214.058H161.386ZM172.431 145.992C173.963 143.234 175.167 142.467 175.605 142.27L168.219 125.855C163.058 128.178 159.363 132.449 156.696 137.25L172.431 145.992ZM164.633 139.356C166.969 142.567 169.119 145.306 171.064 147.495C172.894 149.554 174.982 151.634 177.22 153.032L186.76 137.768C186.838 137.817 186.663 137.715 186.212 137.298C185.783 136.901 185.221 136.328 184.518 135.537C183.104 133.946 181.335 131.717 179.191 128.769L164.633 139.356ZM177.402 153.143C182.764 156.321 188.806 157.76 195.218 157.76V139.76C191.552 139.76 188.775 138.959 186.578 137.658L177.402 153.143ZM195.218 157.76C200.606 157.76 205.33 157.543 209.308 157.066L207.163 139.194C204.142 139.556 200.188 139.76 195.218 139.76V157.76ZM209.267 157.071C212.98 156.642 216.895 156.144 221.013 155.576L218.553 137.745C214.553 138.296 210.77 138.778 207.204 139.189L209.267 157.071ZM221.005 155.577C230.857 154.227 240.246 153.561 249.178 153.561V135.561C239.353 135.561 229.145 136.294 218.562 137.743L221.005 155.577Z" fill="#30B1DA"/>
</g>
<g filter="url(#filter2_d_44_215)">
<path d="M248.328 163.266C290.125 163.266 311.023 180.974 311.023 216.391C311.023 245.948 294.096 287.875 260.242 342.172L225.477 396.859C214.799 414.177 209.461 425.57 209.461 431.039C209.461 436.247 210.958 439.763 213.953 441.586C219.292 444.841 227.234 446.469 237.781 446.469C248.328 446.469 257.573 445.297 265.516 442.953C273.458 440.609 280.815 437.354 287.586 433.188C301.648 424.203 311.023 412.354 315.711 397.641C321.31 405.323 324.109 415.219 324.109 427.328C324.109 439.568 322.872 448.031 320.398 452.719C315.581 461.573 307.703 466 296.766 466H150.672C151.974 458.839 157.052 447.055 165.906 430.648C201.062 366.846 222.221 327.719 229.383 313.266C236.674 298.812 242.924 285.466 248.133 273.227C259.461 246.143 265.125 224.984 265.125 209.75C265.125 201.938 263.367 196.143 259.852 192.367C256.466 188.591 251.062 186.703 243.641 186.703C236.219 186.703 229.643 188.07 223.914 190.805C218.315 193.539 213.042 197.25 208.094 201.938C203.276 206.625 198.849 212.029 194.812 218.148C190.906 224.268 187.456 230.714 184.461 237.484C178.602 251.286 174.956 264.958 173.523 278.5C163.367 273.422 158.289 256.56 158.289 227.914C158.289 196.794 162.065 174.333 169.617 160.531C171.57 157.016 173.849 154.672 176.453 153.5C180.62 159.229 183.745 162.745 185.828 164.047C189.344 166.13 193.445 167.172 198.133 167.172C202.951 167.172 206.987 166.977 210.242 166.586C213.628 166.195 217.208 165.74 220.984 165.219C230.49 163.917 239.604 163.266 248.328 163.266Z" fill="white"/>
<path d="M260.242 342.172L261.086 342.708L261.091 342.701L260.242 342.172ZM225.477 396.859L224.633 396.323L224.625 396.335L225.477 396.859ZM213.953 441.586L214.474 440.732L214.473 440.732L213.953 441.586ZM287.586 433.188L288.11 434.039L288.117 434.035L288.124 434.03L287.586 433.188ZM315.711 397.641L316.519 397.052L315.357 395.457L314.758 397.337L315.711 397.641ZM320.398 452.719L321.277 453.197L321.283 453.186L320.398 452.719ZM150.672 466L149.688 465.821L149.474 467H150.672V466ZM165.906 430.648L165.03 430.166L165.026 430.173L165.906 430.648ZM229.383 313.266L228.49 312.815L228.487 312.822L229.383 313.266ZM248.133 273.227L249.053 273.618L249.055 273.612L248.133 273.227ZM259.852 192.367L259.107 193.035L259.113 193.042L259.12 193.049L259.852 192.367ZM223.914 190.805L223.483 189.902L223.475 189.906L223.914 190.805ZM208.094 201.938L207.406 201.211L207.396 201.221L208.094 201.938ZM194.812 218.148L193.978 217.598L193.974 217.604L193.97 217.61L194.812 218.148ZM184.461 237.484L183.546 237.08L183.543 237.087L183.54 237.094L184.461 237.484ZM173.523 278.5L173.076 279.394L174.366 280.039L174.518 278.605L173.523 278.5ZM169.617 160.531L168.743 160.046L168.74 160.051L169.617 160.531ZM176.453 153.5L177.262 152.912L176.784 152.255L176.043 152.588L176.453 153.5ZM185.828 164.047L185.298 164.895L185.308 164.901L185.318 164.907L185.828 164.047ZM210.242 166.586L210.128 165.593L210.123 165.593L210.242 166.586ZM220.984 165.219L220.849 164.228L220.848 164.228L220.984 165.219ZM248.328 164.266C269.109 164.266 284.508 168.671 294.703 177.31C304.866 185.921 310.023 198.884 310.023 216.391H312.023C312.023 198.481 306.732 184.881 295.996 175.784C285.292 166.714 269.344 162.266 248.328 162.266V164.266ZM310.023 216.391C310.023 245.642 293.24 287.359 259.394 341.643L261.091 342.701C294.953 288.391 312.023 246.254 312.023 216.391H310.023ZM259.398 341.635L224.633 396.323L226.32 397.396L261.086 342.708L259.398 341.635ZM224.625 396.335C219.277 405.009 215.252 412.223 212.559 417.968C209.888 423.668 208.461 428.062 208.461 431.039H210.461C210.461 428.547 211.703 424.51 214.37 418.817C217.017 413.169 220.999 406.028 226.328 397.384L224.625 396.335ZM208.461 431.039C208.461 436.413 210.012 440.357 213.433 442.44L214.473 440.732C211.905 439.169 210.461 436.082 210.461 431.039H208.461ZM213.433 442.44C219.002 445.836 227.163 447.469 237.781 447.469V445.469C227.306 445.469 219.582 443.847 214.474 440.732L213.433 442.44ZM237.781 447.469C248.399 447.469 257.743 446.289 265.799 443.912L265.233 441.994C257.403 444.304 248.257 445.469 237.781 445.469V447.469ZM265.799 443.912C273.823 441.545 281.261 438.254 288.11 434.039L287.062 432.336C280.369 436.454 273.094 439.674 265.233 441.994L265.799 443.912ZM288.124 434.03C302.367 424.931 311.899 412.899 316.664 397.944L314.758 397.337C310.147 411.809 300.93 423.475 287.048 432.345L288.124 434.03ZM314.903 398.23C320.347 405.699 323.109 415.372 323.109 427.328H325.109C325.109 415.065 322.273 404.947 316.519 397.052L314.903 398.23ZM323.109 427.328C323.109 439.565 321.862 447.803 319.514 452.252L321.283 453.186C323.883 448.259 325.109 439.57 325.109 427.328H323.109ZM319.52 452.241C317.19 456.522 314.143 459.697 310.387 461.808C306.626 463.921 302.099 465 296.766 465V467C302.37 467 307.25 465.865 311.367 463.551C315.488 461.235 318.789 457.769 321.277 453.197L319.52 452.241ZM296.766 465H150.672V467H296.766V465ZM151.656 466.179C152.926 459.193 157.928 447.538 166.786 431.123L165.026 430.173C156.176 446.572 151.022 458.484 149.688 465.821L151.656 466.179ZM166.782 431.131C201.934 367.338 223.105 328.187 230.279 313.71L228.487 312.822C221.337 327.25 200.191 366.355 165.03 430.166L166.782 431.131ZM230.276 313.716C237.575 299.248 243.835 285.881 249.053 273.618L247.213 272.835C242.014 285.051 235.774 298.377 228.49 312.815L230.276 313.716ZM249.055 273.612C260.396 246.499 266.125 225.189 266.125 209.75H264.125C264.125 224.779 258.526 245.787 247.21 272.841L249.055 273.612ZM266.125 209.75C266.125 201.811 264.342 195.722 260.583 191.686L259.12 193.049C262.393 196.564 264.125 202.064 264.125 209.75H266.125ZM260.596 191.7C256.947 187.63 251.213 185.703 243.641 185.703V187.703C250.912 187.703 255.985 189.553 259.107 193.035L260.596 191.7ZM243.641 185.703C236.095 185.703 229.368 187.094 223.483 189.902L224.345 191.707C229.919 189.047 236.343 187.703 243.641 187.703V185.703ZM223.475 189.906C217.777 192.689 212.421 196.461 207.406 201.212L208.781 202.663C213.663 198.039 218.853 194.389 224.353 191.703L223.475 189.906ZM207.396 201.221C202.523 205.963 198.05 211.423 193.978 217.598L195.647 218.699C199.648 212.634 204.029 207.287 208.791 202.654L207.396 201.221ZM193.97 217.61C190.036 223.774 186.561 230.264 183.546 237.08L185.375 237.889C188.35 231.163 191.777 224.763 195.655 218.686L193.97 217.61ZM183.54 237.094C177.646 250.978 173.973 264.745 172.529 278.395L174.518 278.605C175.939 265.171 179.557 251.595 185.381 237.875L183.54 237.094ZM173.971 277.606C169.246 275.243 165.558 270.067 163.055 261.757C160.556 253.459 159.289 242.192 159.289 227.914H157.289C157.289 242.282 158.561 253.769 161.14 262.333C163.716 270.885 167.644 276.678 173.076 279.394L173.971 277.606ZM159.289 227.914C159.289 196.828 163.069 174.582 170.494 161.011L168.74 160.051C161.061 174.085 157.289 196.761 157.289 227.914H159.289ZM170.491 161.017C172.381 157.615 174.522 155.466 176.863 154.412L176.043 152.588C173.176 153.878 170.759 156.416 168.743 160.046L170.491 161.017ZM175.644 154.088C177.738 156.967 179.582 159.307 181.174 161.098C182.754 162.875 184.132 164.166 185.298 164.895L186.358 163.199C185.441 162.625 184.215 161.508 182.669 159.769C181.136 158.045 179.335 155.762 177.262 152.912L175.644 154.088ZM185.318 164.907C189.01 167.095 193.293 168.172 198.133 168.172V166.172C193.598 166.172 189.678 165.166 186.338 163.187L185.318 164.907ZM198.133 168.172C202.974 168.172 207.053 167.976 210.361 167.579L210.123 165.593C206.921 165.977 202.927 166.172 198.133 166.172V168.172ZM210.357 167.579C213.75 167.188 217.338 166.731 221.121 166.209L220.848 164.228C217.078 164.748 213.505 165.203 210.128 165.593L210.357 167.579ZM221.12 166.209C230.585 164.913 239.654 164.266 248.328 164.266V162.266C239.555 162.266 230.394 162.92 220.849 164.228L221.12 166.209Z" fill="#30B1DA"/>
</g>
<defs>
<filter id="filter0_f_44_215" x="0.177132" y="0.793098" width="472.833" height="609.339" filterUnits="userSpaceOnUse" color-interpolation-filters="sRGB">
<feFlood flood-opacity="0" result="BackgroundImageFix"/>
<feBlend mode="normal" in="SourceGraphic" in2="BackgroundImageFix" result="shape"/>
<feGaussianBlur stdDeviation="46.5095" result="effect1_foregroundBlur_44_215"/>
</filter>
<filter id="filter1_f_44_215" x="114.197" y="104.062" width="246.445" height="395.938" filterUnits="userSpaceOnUse" color-interpolation-filters="sRGB">
<feFlood flood-opacity="0" result="BackgroundImageFix"/>
<feBlend mode="normal" in="SourceGraphic" in2="BackgroundImageFix" result="shape"/>
<feGaussianBlur stdDeviation="15" result="effect1_foregroundBlur_44_215"/>
</filter>
<filter id="filter2_d_44_215" x="146.672" y="153.5" width="181.438" height="320.5" filterUnits="userSpaceOnUse" color-interpolation-filters="sRGB">
<feFlood flood-opacity="0" result="BackgroundImageFix"/>
<feColorMatrix in="SourceAlpha" type="matrix" values="0 0 0 0 0 0 0 0 0 0 0 0 0 0 0 0 0 0 127 0" result="hardAlpha"/>
<feOffset dy="4"/>
<feGaussianBlur stdDeviation="2"/>
<feComposite in2="hardAlpha" operator="out"/>
<feColorMatrix type="matrix" values="0 0 0 0 0.141176 0 0 0 0 0.180392 0 0 0 0 0.937255 0 0 0 1 0"/>
<feBlend mode="normal" in2="BackgroundImageFix" result="effect1_dropShadow_44_215"/>
<feBlend mode="normal" in="SourceGraphic" in2="effect1_dropShadow_44_215" result="shape"/>
</filter>
</defs>
</svg>
