<svg width="474" height="611" viewBox="0 0 474 611" fill="none" xmlns="http://www.w3.org/2000/svg">
<g filter="url(#filter0_f_49_240)">
<mask id="path-1-inside-1_49_240" fill="white">
<path d="M379.991 304.649C379.674 248.688 364.353 195.089 337.382 155.578C310.41 116.067 273.982 93.8591 236.067 93.8122C198.151 93.7653 161.834 115.883 135.06 155.328C108.286 194.773 93.2336 248.334 93.1961 304.294C93.1586 360.255 108.139 414.06 134.86 453.941C161.581 493.821 197.868 516.531 235.783 517.102C273.698 517.673 310.155 496.058 337.18 456.987C364.204 417.916 379.596 364.568 379.989 308.613L236.596 305.462L379.991 304.649Z"/>
</mask>
<path d="M379.991 304.649C379.674 248.688 364.353 195.089 337.382 155.578C310.41 116.067 273.982 93.8591 236.067 93.8122C198.151 93.7653 161.834 115.883 135.06 155.328C108.286 194.773 93.2336 248.334 93.1961 304.294C93.1586 360.255 108.139 414.06 134.86 453.941C161.581 493.821 197.868 516.531 235.783 517.102C273.698 517.673 310.155 496.058 337.18 456.987C364.204 417.916 379.596 364.568 379.989 308.613L236.596 305.462L379.991 304.649Z" fill="#242EEF" fill-opacity="0.4"/>
<path d="M379.991 304.649C379.674 248.688 364.353 195.089 337.382 155.578C310.41 116.067 273.982 93.8591 236.067 93.8122C198.151 93.7653 161.834 115.883 135.06 155.328C108.286 194.773 93.2336 248.334 93.1961 304.294C93.1586 360.255 108.139 414.06 134.86 453.941C161.581 493.821 197.868 516.531 235.783 517.102C273.698 517.673 310.155 496.058 337.18 456.987C364.204 417.916 379.596 364.568 379.989 308.613L236.596 305.462L379.991 304.649Z" stroke="#9A9A9A" stroke-width="2.06709" mask="url(#path-1-inside-1_49_240)"/>
</g>
<g filter="url(#filter1_f_49_240)">
<path d="M301.248 170.888C306.007 175.227 309.437 180.126 311.536 185.585C313.636 190.904 314.686 196.713 314.686 203.012C314.686 209.171 313.286 215.399 310.486 221.698C307.827 227.997 304.257 233.736 299.778 238.915C291.52 248.713 280.812 256.902 267.654 263.48C295.649 269.919 313.846 283.637 322.244 304.633C324.904 311.352 326.233 320.17 326.233 331.088C326.233 341.866 323.854 353.974 319.095 367.411C314.476 380.709 308.037 393.236 299.778 404.994C291.66 416.752 282.072 427.53 271.014 437.328C259.956 447.126 248.128 455.595 235.53 462.733C209.355 477.711 183.04 485.199 156.585 485.199C151.266 483.24 147.347 480.16 144.827 475.961C142.448 471.622 141.118 467.702 140.838 464.203C162.254 464.203 183.04 458.044 203.196 445.727C222.093 433.969 237.63 418.362 249.808 398.905C261.985 379.169 268.074 358.523 268.074 336.967C268.074 320.03 264.365 307.292 256.946 298.754C247.008 287.276 229.441 281.537 204.246 281.537C199.347 275.938 196.897 269.639 196.897 262.641C211.595 261.661 226.082 255.572 240.359 244.374C255.896 232.056 263.665 217.709 263.665 201.332C263.665 194.193 261.775 189.014 257.996 185.795C254.357 182.436 247.848 180.756 238.47 180.756C229.091 180.756 220.763 182.016 213.484 184.535C206.206 187.055 199.837 191.114 194.378 196.713C183.46 207.491 175.132 225.268 169.393 250.043C163.654 247.243 159.804 241.225 157.845 231.986C156.025 222.748 155.115 214.35 155.115 206.791C155.115 199.092 155.255 193.773 155.535 190.834C155.955 187.755 156.515 184.395 157.215 180.756C158.055 177.117 158.965 173.337 159.944 169.418C160.924 165.499 162.044 161.859 163.304 158.5C166.243 151.081 169.323 146.602 172.542 145.062C177.021 151.221 180.381 155.001 182.62 156.4C186.399 158.64 191.578 159.76 198.157 159.76C204.876 159.76 212.924 159.06 222.303 157.66C231.681 156.26 242.109 155.561 253.587 155.561C265.205 155.561 274.863 157.03 282.562 159.97C290.26 162.769 296.489 166.409 301.248 170.888Z" fill="#30B1DA"/>
<path d="M301.248 170.888L295.08 177.441L295.132 177.49L295.184 177.538L301.248 170.888ZM311.536 185.585L303.136 188.816L303.15 188.853L303.165 188.889L311.536 185.585ZM310.486 221.698L302.262 218.043L302.228 218.12L302.195 218.197L310.486 221.698ZM299.778 238.915L292.971 233.028L292.934 233.071L292.897 233.115L299.778 238.915ZM267.654 263.48L263.629 255.431L241.22 266.635L265.637 272.251L267.654 263.48ZM322.244 304.633L330.612 301.32L330.606 301.305L330.6 301.29L322.244 304.633ZM319.095 367.411L310.611 364.407L310.602 364.432L310.593 364.458L319.095 367.411ZM299.778 404.994L292.413 399.821L292.393 399.851L292.372 399.88L299.778 404.994ZM235.53 462.733L231.093 454.903L231.077 454.912L231.061 454.922L235.53 462.733ZM156.585 485.199L153.474 493.644L154.98 494.199H156.585V485.199ZM144.827 475.961L136.936 480.288L137.02 480.442L137.11 480.591L144.827 475.961ZM140.838 464.203V455.203H131.089L131.867 464.921L140.838 464.203ZM203.196 445.727L207.889 453.406L207.92 453.387L207.951 453.368L203.196 445.727ZM249.808 398.905L257.437 403.68L257.452 403.656L257.467 403.631L249.808 398.905ZM256.946 298.754L250.142 304.645L250.147 304.651L250.152 304.657L256.946 298.754ZM204.246 281.537L197.473 287.464L200.162 290.537H204.246V281.537ZM196.897 262.641L196.299 253.661L187.897 254.221V262.641H196.897ZM240.359 244.374L245.914 251.456L245.932 251.441L245.951 251.427L240.359 244.374ZM257.996 185.795L251.892 192.408L252.023 192.53L252.16 192.646L257.996 185.795ZM194.378 196.713L200.701 203.118L200.762 203.057L200.822 202.996L194.378 196.713ZM169.393 250.043L165.447 258.132L175.609 263.089L178.16 252.074L169.393 250.043ZM157.845 231.986L149.014 233.726L149.027 233.79L149.041 233.854L157.845 231.986ZM155.535 190.834L146.618 189.618L146.593 189.799L146.576 189.981L155.535 190.834ZM157.215 180.756L148.445 178.732L148.408 178.894L148.377 179.056L157.215 180.756ZM163.304 158.5L154.937 155.185L154.906 155.262L154.877 155.34L163.304 158.5ZM172.542 145.062L179.821 139.769L175.415 133.712L168.659 136.943L172.542 145.062ZM182.62 156.4L177.85 164.032L177.94 164.089L178.032 164.143L182.62 156.4ZM282.562 159.97L279.351 168.378L279.418 168.403L279.486 168.428L282.562 159.97ZM295.184 177.538C299.016 181.032 301.588 184.791 303.136 188.816L319.936 182.354C317.285 175.461 312.999 169.422 307.312 164.237L295.184 177.538ZM303.165 188.889C304.809 193.054 305.686 197.729 305.686 203.012H323.686C323.686 195.697 322.463 188.754 319.908 182.28L303.165 188.889ZM305.686 203.012C305.686 207.769 304.611 212.757 302.262 218.043L318.711 225.353C321.96 218.041 323.686 210.572 323.686 203.012H305.686ZM302.195 218.197C299.903 223.627 296.835 228.56 292.971 233.028L306.586 244.802C311.68 238.912 315.751 232.367 318.778 225.199L302.195 218.197ZM292.897 233.115C285.536 241.848 275.853 249.319 263.629 255.431L271.679 271.53C285.771 264.484 297.504 255.578 306.66 244.715L292.897 233.115ZM265.637 272.251C291.626 278.229 306.879 290.454 313.888 307.975L330.6 301.29C320.812 276.82 299.672 261.61 269.672 254.709L265.637 272.251ZM313.876 307.945C315.961 313.214 317.233 320.782 317.233 331.088H335.233C335.233 319.558 333.846 309.489 330.612 301.32L313.876 307.945ZM317.233 331.088C317.233 340.572 315.132 351.641 310.611 364.407L327.578 370.416C332.575 356.306 335.233 343.16 335.233 331.088H317.233ZM310.593 364.458C306.254 376.95 300.202 388.733 292.413 399.821L307.143 410.167C315.872 397.74 322.697 384.467 327.596 370.364L310.593 364.458ZM292.372 399.88C284.68 411.022 275.579 421.258 265.045 430.592L276.982 444.064C288.565 433.802 298.64 422.482 307.184 410.108L292.372 399.88ZM265.045 430.592C254.448 439.982 243.132 448.081 231.093 454.903L239.967 470.564C253.123 463.108 265.463 454.271 276.982 444.064L265.045 430.592ZM231.061 454.922C206.053 469.231 181.263 476.199 156.585 476.199V494.199C184.817 494.199 212.657 486.19 240 470.545L231.061 454.922ZM159.696 476.754C155.984 475.387 153.846 473.5 152.545 471.33L137.11 480.591C140.847 486.82 146.547 491.093 153.474 493.644L159.696 476.754ZM152.718 471.633C150.717 467.983 149.955 465.312 149.809 463.485L131.867 464.921C132.28 470.093 134.178 475.26 136.936 480.288L152.718 471.633ZM140.838 473.203C164.078 473.203 186.47 466.496 207.889 453.406L198.503 438.047C179.61 449.593 160.43 455.203 140.838 455.203V473.203ZM207.951 453.368C228.048 440.863 244.555 424.261 257.437 403.68L242.179 394.13C230.705 412.462 216.137 427.074 198.442 438.085L207.951 453.368ZM257.467 403.631C270.452 382.586 277.074 360.319 277.074 336.967H259.074C259.074 356.727 253.519 375.751 242.148 394.179L257.467 403.631ZM277.074 336.967C277.074 318.906 273.143 303.673 263.74 292.851L250.152 304.657C255.587 310.911 259.074 321.154 259.074 336.967H277.074ZM263.75 292.863C251.25 278.426 230.384 272.537 204.246 272.537V290.537C228.499 290.537 242.766 296.126 250.142 304.645L263.75 292.863ZM211.019 275.611C207.457 271.54 205.897 267.314 205.897 262.641H187.897C187.897 271.964 191.237 280.336 197.473 287.464L211.019 275.611ZM197.496 271.621C214.379 270.495 230.546 263.509 245.914 251.456L234.805 237.292C221.618 247.635 208.81 252.826 196.299 253.661L197.496 271.621ZM245.951 251.427C263.138 237.801 272.665 221.041 272.665 201.332H254.665C254.665 214.377 248.655 226.312 234.768 237.321L245.951 251.427ZM272.665 201.332C272.665 192.747 270.376 184.518 263.832 178.944L252.16 192.646C253.175 193.511 254.665 195.64 254.665 201.332H272.665ZM264.101 179.182C257.839 173.401 248.328 171.756 238.47 171.756V189.756C247.368 189.756 250.875 191.47 251.892 192.408L264.101 179.182ZM238.47 171.756C228.3 171.756 218.946 173.121 210.54 176.03L216.428 193.04C222.58 190.911 229.883 189.756 238.47 189.756V171.756ZM210.54 176.03C201.917 179.015 194.355 183.844 187.934 190.43L200.822 202.996C205.319 198.384 210.494 195.094 216.428 193.04L210.54 176.03ZM188.055 190.308C175.367 202.833 166.522 222.555 160.625 248.012L178.16 252.074C183.741 227.98 191.553 212.148 200.701 203.118L188.055 190.308ZM173.338 241.954C171.108 240.866 168.319 237.99 166.649 230.119L149.041 233.854C151.29 244.459 156.199 253.621 165.447 258.132L173.338 241.954ZM166.675 230.247C164.942 221.448 164.115 213.644 164.115 206.791H146.115C146.115 215.055 147.108 224.048 149.014 233.726L166.675 230.247ZM164.115 206.791C164.115 199.066 164.26 194.146 164.495 191.687L146.576 189.981C146.25 193.401 146.115 199.118 146.115 206.791H164.115ZM164.453 192.05C164.847 189.16 165.378 185.964 166.053 182.455L148.377 179.056C147.652 182.827 147.063 186.349 146.618 189.618L164.453 192.05ZM165.984 182.78C166.811 179.198 167.708 175.471 168.676 171.601L151.213 167.235C150.221 171.203 149.298 175.036 148.445 178.732L165.984 182.78ZM168.676 171.601C169.583 167.972 170.605 164.663 171.731 161.66L154.877 155.34C153.483 159.056 152.266 163.025 151.213 167.235L168.676 171.601ZM171.671 161.815C172.996 158.471 174.21 156.165 175.234 154.675C176.311 153.11 176.793 153.006 176.425 153.182L168.659 136.943C165.071 138.659 162.404 141.565 160.401 144.478C158.346 147.467 156.551 151.11 154.937 155.185L171.671 161.815ZM165.263 150.356C167.599 153.567 169.749 156.306 171.694 158.495C173.524 160.554 175.612 162.634 177.85 164.032L187.39 148.768C187.467 148.817 187.293 148.715 186.842 148.298C186.413 147.901 185.851 147.328 185.148 146.537C183.734 144.946 181.964 142.717 179.821 139.769L165.263 150.356ZM178.032 164.143C183.726 167.517 190.71 168.76 198.157 168.76V150.76C192.447 150.76 189.073 149.763 187.208 148.658L178.032 164.143ZM198.157 168.76C205.46 168.76 213.977 168.003 223.631 166.562L220.974 148.759C211.872 150.117 204.292 150.76 198.157 150.76V168.76ZM223.631 166.562C232.49 165.239 242.465 164.561 253.587 164.561V146.561C241.753 146.561 230.872 147.281 220.974 148.759L223.631 166.562ZM253.587 164.561C264.523 164.561 273.005 165.954 279.351 168.378L285.772 151.562C276.721 148.106 265.887 146.561 253.587 146.561V164.561ZM279.486 168.428C286.317 170.912 291.406 173.984 295.08 177.441L307.416 164.334C301.571 158.833 294.204 154.627 285.637 151.512L279.486 168.428Z" fill="#30B1DA"/>
</g>
<g filter="url(#filter2_d_49_240)">
<path d="M296.766 177.523C301.193 181.56 304.383 186.117 306.336 191.195C308.289 196.143 309.266 201.547 309.266 207.406C309.266 213.135 307.964 218.93 305.359 224.789C302.885 230.648 299.565 235.987 295.398 240.805C287.716 249.919 277.755 257.536 265.516 263.656C291.557 269.646 308.484 282.406 316.297 301.938C318.771 308.188 320.008 316.391 320.008 326.547C320.008 336.573 317.794 347.836 313.367 360.336C309.07 372.706 303.081 384.359 295.398 395.297C287.846 406.234 278.927 416.26 268.641 425.375C258.354 434.49 247.352 442.367 235.633 449.008C211.284 462.94 186.805 469.906 162.195 469.906C157.247 468.083 153.602 465.219 151.258 461.312C149.044 457.276 147.807 453.63 147.547 450.375C167.469 450.375 186.805 444.646 205.555 433.188C223.133 422.25 237.586 407.732 248.914 389.633C260.242 371.273 265.906 352.068 265.906 332.016C265.906 316.26 262.456 304.411 255.555 296.469C246.31 285.792 229.969 280.453 206.531 280.453C201.974 275.245 199.695 269.385 199.695 262.875C213.367 261.964 226.844 256.299 240.125 245.883C254.578 234.424 261.805 221.078 261.805 205.844C261.805 199.203 260.047 194.385 256.531 191.391C253.146 188.266 247.091 186.703 238.367 186.703C229.643 186.703 221.896 187.875 215.125 190.219C208.354 192.562 202.43 196.339 197.352 201.547C187.195 211.573 179.448 228.109 174.109 251.156C168.771 248.552 165.19 242.953 163.367 234.359C161.674 225.766 160.828 217.953 160.828 210.922C160.828 203.76 160.958 198.812 161.219 196.078C161.609 193.214 162.13 190.089 162.781 186.703C163.562 183.318 164.409 179.802 165.32 176.156C166.232 172.51 167.273 169.125 168.445 166C171.18 159.099 174.044 154.932 177.039 153.5C181.206 159.229 184.331 162.745 186.414 164.047C189.93 166.13 194.747 167.172 200.867 167.172C207.117 167.172 214.604 166.521 223.328 165.219C232.052 163.917 241.753 163.266 252.43 163.266C263.237 163.266 272.221 164.633 279.383 167.367C286.544 169.971 292.339 173.357 296.766 177.523Z" fill="white"/>
<path d="M296.766 177.523L296.08 178.252L296.086 178.257L296.092 178.262L296.766 177.523ZM306.336 191.195L305.403 191.554L305.406 191.562L306.336 191.195ZM305.359 224.789L304.446 224.383L304.442 224.391L304.438 224.4L305.359 224.789ZM295.398 240.805L294.642 240.15L294.634 240.16L295.398 240.805ZM265.516 263.656L265.068 262.762L262.578 264.007L265.291 264.631L265.516 263.656ZM316.297 301.938L317.227 301.569L317.225 301.566L316.297 301.938ZM313.367 360.336L312.425 360.002L312.423 360.008L313.367 360.336ZM295.398 395.297L294.58 394.722L294.576 394.729L295.398 395.297ZM235.633 449.008L235.14 448.138L235.136 448.14L235.633 449.008ZM162.195 469.906L161.85 470.845L162.017 470.906H162.195V469.906ZM151.258 461.312L150.381 461.793L150.39 461.81L150.4 461.827L151.258 461.312ZM147.547 450.375V449.375H146.464L146.55 450.455L147.547 450.375ZM205.555 433.188L206.076 434.041L206.083 434.037L205.555 433.188ZM248.914 389.633L249.762 390.163L249.765 390.158L248.914 389.633ZM255.555 296.469L254.799 297.123L254.8 297.125L255.555 296.469ZM206.531 280.453L205.779 281.112L206.077 281.453H206.531V280.453ZM199.695 262.875L199.629 261.877L198.695 261.939V262.875H199.695ZM240.125 245.883L240.742 246.67L240.746 246.666L240.125 245.883ZM256.531 191.391L255.853 192.125L255.868 192.139L255.883 192.152L256.531 191.391ZM197.352 201.547L198.054 202.259L198.061 202.252L198.068 202.245L197.352 201.547ZM174.109 251.156L173.671 252.055L174.8 252.606L175.084 251.382L174.109 251.156ZM163.367 234.359L162.386 234.553L162.387 234.56L162.389 234.567L163.367 234.359ZM161.219 196.078L160.228 195.943L160.225 195.963L160.223 195.983L161.219 196.078ZM162.781 186.703L161.807 186.478L161.803 186.496L161.799 186.514L162.781 186.703ZM168.445 166L167.516 165.632L167.512 165.64L167.509 165.649L168.445 166ZM177.039 153.5L177.848 152.912L177.358 152.239L176.608 152.598L177.039 153.5ZM186.414 164.047L185.884 164.895L185.894 164.901L185.904 164.907L186.414 164.047ZM279.383 167.367L279.026 168.301L279.034 168.304L279.041 168.307L279.383 167.367ZM296.092 178.262C300.416 182.205 303.511 186.635 305.403 191.554L307.269 190.836C305.255 185.599 301.97 180.915 297.439 176.784L296.092 178.262ZM305.406 191.562C307.308 196.382 308.266 201.66 308.266 207.406H310.266C310.266 201.434 309.27 195.904 307.266 190.828L305.406 191.562ZM308.266 207.406C308.266 212.98 307 218.636 304.446 224.383L306.273 225.195C308.927 219.223 310.266 213.291 310.266 207.406H308.266ZM304.438 224.4C302.005 230.163 298.74 235.412 294.642 240.151L296.155 241.459C300.39 236.562 303.766 231.134 306.281 225.178L304.438 224.4ZM294.634 240.16C287.051 249.156 277.204 256.694 265.068 262.762L265.963 264.551C278.306 258.379 288.381 250.682 296.163 241.449L294.634 240.16ZM265.291 264.631C291.11 270.569 307.71 283.164 315.368 302.309L317.225 301.566C309.258 281.649 292.004 268.723 265.74 262.682L265.291 264.631ZM315.367 302.306C317.777 308.394 319.008 316.459 319.008 326.547H321.008C321.008 316.323 319.764 307.981 317.227 301.569L315.367 302.306ZM319.008 326.547C319.008 336.429 316.825 347.577 312.425 360.002L314.31 360.67C318.763 348.095 321.008 336.717 321.008 326.547H319.008ZM312.423 360.008C308.157 372.288 302.21 383.859 294.58 394.722L296.217 395.872C303.951 384.86 309.984 373.123 314.312 360.664L312.423 360.008ZM294.576 394.729C287.071 405.598 278.206 415.564 267.977 424.627L269.304 426.123C279.649 416.957 288.622 406.871 296.221 395.865L294.576 394.729ZM267.977 424.627C257.742 433.696 246.797 441.532 235.14 448.138L236.126 449.878C247.907 443.202 258.966 435.283 269.304 426.123L267.977 424.627ZM235.136 448.14C210.917 461.998 186.607 468.906 162.195 468.906V470.906C187.002 470.906 211.651 463.882 236.129 449.876L235.136 448.14ZM162.541 468.968C157.772 467.211 154.324 464.479 152.115 460.798L150.4 461.827C152.879 465.959 156.723 468.956 161.85 470.845L162.541 468.968ZM152.135 460.832C149.963 456.872 148.789 453.365 148.544 450.295L146.55 450.455C146.825 453.896 148.125 457.68 150.381 461.793L152.135 460.832ZM147.547 451.375C167.671 451.375 187.186 445.585 206.076 434.041L205.033 432.334C186.424 443.707 167.266 449.375 147.547 449.375V451.375ZM206.083 434.037C223.795 423.016 238.355 408.387 249.762 390.163L248.066 389.102C236.816 407.076 222.471 421.484 205.026 432.338L206.083 434.037ZM249.765 390.158C261.183 371.653 266.906 352.267 266.906 332.016H264.906C264.906 351.868 259.301 370.894 248.063 389.108L249.765 390.158ZM266.906 332.016C266.906 316.136 263.431 304.009 256.31 295.813L254.8 297.125C261.48 304.814 264.906 316.385 264.906 332.016H266.906ZM256.311 295.814C246.781 284.808 230.073 279.453 206.531 279.453V281.453C229.864 281.453 245.839 286.775 254.799 297.123L256.311 295.814ZM207.284 279.795C202.875 274.756 200.695 269.127 200.695 262.875H198.695C198.695 269.644 201.073 275.733 205.779 281.112L207.284 279.795ZM199.762 263.873C213.677 262.945 227.34 257.181 240.742 246.67L239.508 245.096C226.348 255.418 213.058 260.982 199.629 261.877L199.762 263.873ZM240.746 246.666C255.383 235.063 262.805 221.448 262.805 205.844H260.805C260.805 220.708 253.774 233.786 239.504 245.099L240.746 246.666ZM262.805 205.844C262.805 199.042 261.003 193.886 257.18 190.629L255.883 192.152C259.091 194.885 260.805 199.364 260.805 205.844H262.805ZM257.21 190.656C253.533 187.262 247.145 185.703 238.367 185.703V187.703C247.038 187.703 252.759 189.269 255.853 192.125L257.21 190.656ZM238.367 185.703C229.555 185.703 221.694 186.887 214.798 189.274L215.452 191.164C222.098 188.863 229.731 187.703 238.367 187.703V185.703ZM214.798 189.274C207.878 191.669 201.821 195.531 196.636 200.849L198.068 202.245C203.039 197.146 208.831 193.456 215.452 191.164L214.798 189.274ZM196.649 200.835C186.296 211.055 178.491 227.808 173.135 250.931L175.084 251.382C180.405 228.411 188.095 212.09 198.054 202.259L196.649 200.835ZM174.548 250.257C169.599 247.843 166.136 242.594 164.345 234.152L162.389 234.567C164.244 243.313 167.943 249.261 173.671 252.055L174.548 250.257ZM164.348 234.166C162.665 225.621 161.828 217.875 161.828 210.922H159.828C159.828 218.032 160.684 225.91 162.386 234.553L164.348 234.166ZM161.828 210.922C161.828 203.758 161.959 198.854 162.214 196.173L160.223 195.983C159.958 198.771 159.828 203.763 159.828 210.922H161.828ZM162.21 196.213C162.597 193.37 163.115 190.263 163.763 186.892L161.799 186.514C161.145 189.914 160.621 193.057 160.228 195.943L162.21 196.213ZM163.756 186.928C164.535 183.549 165.38 180.039 166.29 176.399L164.35 175.914C163.437 179.565 162.59 183.086 161.807 186.478L163.756 186.928ZM166.29 176.399C167.194 172.785 168.225 169.437 169.382 166.351L167.509 165.649C166.322 168.813 165.27 172.236 164.35 175.914L166.29 176.399ZM169.375 166.368C170.726 162.958 172.094 160.266 173.469 158.266C174.849 156.257 176.193 155.013 177.471 154.402L176.608 152.598C174.89 153.419 173.304 154.974 171.82 157.133C170.331 159.299 168.899 162.141 167.516 165.632L169.375 166.368ZM176.23 154.088C178.324 156.967 180.168 159.307 181.76 161.098C183.34 162.875 184.718 164.166 185.884 164.895L186.944 163.199C186.027 162.625 184.801 161.508 183.255 159.769C181.722 158.045 179.92 155.762 177.848 152.912L176.23 154.088ZM185.904 164.907C189.633 167.117 194.651 168.172 200.867 168.172V166.172C194.844 166.172 190.227 165.144 186.924 163.187L185.904 164.907ZM200.867 168.172C207.182 168.172 214.721 167.514 223.476 166.208L223.181 164.23C214.487 165.527 207.052 166.172 200.867 166.172V168.172ZM223.476 166.208C232.142 164.914 241.792 164.266 252.43 164.266V162.266C241.713 162.266 231.962 162.919 223.181 164.23L223.476 166.208ZM252.43 164.266C263.161 164.266 272.015 165.624 279.026 168.301L279.74 166.433C272.428 163.641 263.313 162.266 252.43 162.266V164.266ZM279.041 168.307C286.106 170.876 291.774 174.199 296.08 178.252L297.451 176.795C292.903 172.515 286.982 169.067 279.725 166.427L279.041 168.307Z" fill="#30B1DA"/>
</g>
<defs>
<filter id="filter0_f_49_240" x="0.177132" y="0.793098" width="472.833" height="609.339" filterUnits="userSpaceOnUse" color-interpolation-filters="sRGB">
<feFlood flood-opacity="0" result="BackgroundImageFix"/>
<feBlend mode="normal" in="SourceGraphic" in2="BackgroundImageFix" result="shape"/>
<feGaussianBlur stdDeviation="46.5095" result="effect1_foregroundBlur_49_240"/>
</filter>
<filter id="filter1_f_49_240" x="110.838" y="115.062" width="245.396" height="400.137" filterUnits="userSpaceOnUse" color-interpolation-filters="sRGB">
<feFlood flood-opacity="0" result="BackgroundImageFix"/>
<feBlend mode="normal" in="SourceGraphic" in2="BackgroundImageFix" result="shape"/>
<feGaussianBlur stdDeviation="15" result="effect1_foregroundBlur_49_240"/>
</filter>
<filter id="filter2_d_49_240" x="143.547" y="153.5" width="180.461" height="324.406" filterUnits="userSpaceOnUse" color-interpolation-filters="sRGB">
<feFlood flood-opacity="0" result="BackgroundImageFix"/>
<feColorMatrix in="SourceAlpha" type="matrix" values="0 0 0 0 0 0 0 0 0 0 0 0 0 0 0 0 0 0 127 0" result="hardAlpha"/>
<feOffset dy="4"/>
<feGaussianBlur stdDeviation="2"/>
<feComposite in2="hardAlpha" operator="out"/>
<feColorMatrix type="matrix" values="0 0 0 0 0.141176 0 0 0 0 0.180392 0 0 0 0 0.937255 0 0 0 1 0"/>
<feBlend mode="normal" in2="BackgroundImageFix" result="effect1_dropShadow_49_240"/>
<feBlend mode="normal" in="SourceGraphic" in2="effect1_dropShadow_49_240" result="shape"/>
</filter>
</defs>
</svg>
